<svg xmlns="http://www.w3.org/2000/svg" width="64" height="64" viewBox="0 0 64 64" fill="none">
  <defs>
    <linearGradient id="fg-bg" x1="8" y1="8" x2="56" y2="56" gradientUnits="userSpaceOnUse">
      <stop offset="0" stop-color="#2563EB"/>
      <stop offset="1" stop-color="#0B1E3D"/>
    </linearGradient>
  </defs>
  <rect x="4" y="4" width="56" height="56" rx="16" fill="url(#fg-bg)"/>
  <circle cx="32" cy="32" r="19" fill="rgba(255,255,255,0.12)"/>
  <path d="M20 23.5h17.8c1 0 1.8.8 1.8 1.8s-.8 1.8-1.8 1.8H25.5v5.2h9.4c1 0 1.8.8 1.8 1.8s-.8 1.8-1.8 1.8h-9.4v8.7c0 1-.8 1.8-1.8 1.8s-1.8-.8-1.8-1.8V25.3c0-1 .8-1.8 1.8-1.8Z" fill="#FFFFFF"/>
  <path d="M39.5 22.5c1 0 1.8.8 1.8 1.8v15.4c0 1-.8 1.8-1.8 1.8s-1.8-.8-1.8-1.8V24.3c0-1 .8-1.8 1.8-1.8Z" fill="#DBEAFE"/>
</svg>